<svg xmlns="http://www.w3.org/2000/svg" viewBox="0 0 304 72" role="img" aria-labelledby="title">
  <title id="title">Painted Poker logo</title>
  <defs>
    <linearGradient id="a" x1="7" y1="6" x2="65" y2="68" gradientUnits="userSpaceOnUse">
      <stop stop-color="#F4DA8A"/>
      <stop offset=".5" stop-color="#C89A3D"/>
      <stop offset="1" stop-color="#825A1F"/>
    </linearGradient>
    <linearGradient id="b" x1="18" y1="12" x2="54" y2="61" gradientUnits="userSpaceOnUse">
      <stop stop-color="#1B7A5B"/>
      <stop offset="1" stop-color="#0A3C31"/>
    </linearGradient>
  </defs>
  <path fill="#111816" stroke="url(#a)" stroke-width="2.5" d="M36 3.5 65 20v32L36 68.5 7 52V20z"/>
  <path fill="url(#b)" d="m36 10 22.8 13v26L36 62 13.2 49V23z"/>
  <path fill="none" stroke="#E8C66F" stroke-linecap="round" stroke-width="3" d="M24 49c6-4.2 8.8-10.2 12-24 3.2 13.8 6 19.8 12 24M27 42h18"/>
  <circle cx="36" cy="25" r="3.8" fill="#F2D57E"/>
  <path fill="#F2D57E" d="m19 27 4.3 5.8L19 38l-4.3-5.2zm34 0 4.3 5.8L53 38l-4.3-5.2z"/>
  <text x="82" y="33" fill="#F5EFE2" font-family="Georgia,serif" font-size="22" font-weight="700" letter-spacing="1.3">&#1056;&#1040;&#1057;&#1055;&#1048;&#1057;&#1053;&#1054;&#1049;</text>
  <text x="83" y="54" fill="#CFA752" font-family="Arial,sans-serif" font-size="12" font-weight="700" letter-spacing="5.4">&#1055;&#1054;&#1050;&#1045;&#1056;</text>
</svg>
